<?xml version="1.0" standalone="no"?>
<!DOCTYPE svg PUBLIC "-//W3C//DTD SVG 1.1//EN" "http://www.w3.org/Graphics/SVG/1.1/DTD/svg11.dtd">
<svg width="60mm" height="60mm" viewBox="0 0 60 60" xmlns="http://www.w3.org/2000/svg" version="1.1">
    <text text-anchor="middle" font-family="Helvetica" font-size="2.8218694885" fill="#2aa198" font-weight="bold" x="2.5" y="53.65063509461096">T1</text>
    <text text-anchor="middle" font-family="Helvetica" font-size="2.8218694885" fill="#6c71c4" font-weight="bold" x="57.5" y="53.65063509461096">T2</text>
    <text text-anchor="middle" font-family="Helvetica" font-size="2.8218694885" fill="#cb4b16" font-weight="bold" x="30.0" y="6.349364905389034">T3</text>
    <text text-anchor="middle" font-family="Helvetica" font-size="2.1164021164" fill="black" font-weight="bold" x="30.0" y="58.15063509461096">&#916;L = 10</text>
    <text text-anchor="middle" font-family="Helvetica" font-size="2.1164021164" fill="black" font-weight="bold" x="30.0" y="50.65063509461096">n = 255</text>
    <text text-anchor="middle" font-family="Helvetica" font-size="2.1164021164" fill="#2aa198" font-weight="bold" x="17.25" y="55.40063509461096">n = 149</text>
    <text text-anchor="middle" font-family="Helvetica" font-size="2.1164021164" fill="#6c71c4" font-weight="bold" x="42.75" y="55.40063509461096">n = 103</text>
    <text text-anchor="middle" font-family="Helvetica" font-size="2.1164021164" fill="#2aa198" font-weight="bold" x="17.25" y="49.600635094610965" transform="rotate(-60,5,51.65063509461096)">n = 121</text>
    <text text-anchor="middle" font-family="Helvetica" font-size="2.1164021164" fill="#cb4b16" font-weight="bold" x="42.75" y="49.600635094610965" transform="rotate(-60,5,51.65063509461096)">n = 132</text>
    <text text-anchor="middle" font-family="Helvetica" font-size="2.1164021164" fill="#cb4b16" font-weight="bold" x="17.25" y="49.600635094610965" transform="rotate(60,55,51.65063509461096)">n = 144</text>
    <text text-anchor="middle" font-family="Helvetica" font-size="2.1164021164" fill="#6c71c4" font-weight="bold" x="42.75" y="49.600635094610965" transform="rotate(60,55,51.65063509461096)">n = 109</text>
    <line x1="5.0" y1="51.651" x2="30.0" y2="37.217" stroke="black" stroke-width="0.5" stroke-opacity="1" stroke-linecap="round" stroke-dasharray="1" />
    <line x1="55.0" y1="51.651" x2="30.0" y2="37.217" stroke="black" stroke-width="0.5" stroke-opacity="1" stroke-linecap="round" stroke-dasharray="1" />
    <line x1="30.0" y1="8.349" x2="30.0" y2="37.217" stroke="black" stroke-width="0.5" stroke-opacity="1" stroke-linecap="round" stroke-dasharray="1" />
    <line x1="29.141" y1="55.651" x2="30.859" y2="55.651" stroke="black" stroke-width="1" stroke-opacity="1" stroke-linecap="round" />
    <line x1="5.0" y1="52.401" x2="29.5" y2="52.401" stroke="#2aa198" stroke-width="1" stroke-opacity="1" stroke-linecap="round" />
    <line x1="30.5" y1="52.401" x2="55.0" y2="52.401" stroke="#6c71c4" stroke-width="1" stroke-opacity="1" stroke-linecap="round" />
    <line x1="5.0" y1="50.901" x2="29.5" y2="50.901" stroke="#2aa198" stroke-width="1" stroke-opacity="1" stroke-linecap="round" transform="rotate(-60,5,51.65063509461096)" />
    <line x1="30.5" y1="50.901" x2="55.0" y2="50.901" stroke="#cb4b16" stroke-width="1" stroke-opacity="1" stroke-linecap="round" transform="rotate(-60,5,51.65063509461096)" />
    <line x1="5.0" y1="50.901" x2="29.5" y2="50.901" stroke="#cb4b16" stroke-width="1" stroke-opacity="1" stroke-linecap="round" transform="rotate(60,55,51.65063509461096)" />
    <line x1="30.5" y1="50.901" x2="55.0" y2="50.901" stroke="#6c71c4" stroke-width="1" stroke-opacity="1" stroke-linecap="round" transform="rotate(60,55,51.65063509461096)" />
    <circle cx="30.616235119047186" cy="35.29498069869611" r="0.5" fill="#969996" stroke="none" opacity="0.5" />
    <circle cx="29.76004464285671" cy="38.35211910622985" r="0.5" fill="#8d9fa1" stroke="none" opacity="0.5" />
    <circle cx="30.001636904761696" cy="37.21821864228084" r="0.5" fill="#92a0a1" stroke="none" opacity="0.5" />
    <circle cx="29.684464285714316" cy="36.658841836829424" r="0.5" fill="#939e9d" stroke="none" opacity="0.5" />
    <circle cx="29.991592261904945" cy="36.82379046507484" r="0.5" fill="#939f9f" stroke="none" opacity="0.5" />
    <circle cx="29.50367559523827" cy="35.874770960094835" r="0.5" fill="#949c98" stroke="none" opacity="0.5" />
    <circle cx="32.17266369047593" cy="37.413701539228434" r="0.5" fill="#91999e" stroke="none" opacity="0.5" />
    <circle cx="30.00040178571388" cy="37.21654329551738" r="0.5" fill="#93a0a0" stroke="none" opacity="0.5" />
    <circle cx="30.29553571428583" cy="37.947037441914134" r="0.5" fill="#8f9fa1" stroke="none" opacity="0.5" />
    <circle cx="29.788035714285733" cy="35.708482054437965" r="0.5" fill="#959c99" stroke="none" opacity="0.5" />
    <circle cx="30.330505952380886" cy="34.92710032404685" r="0.5" fill="#979895" stroke="none" opacity="0.5" />
    <circle cx="29.801815476190487" cy="37.238958576058515" r="0.5" fill="#92a0a0" stroke="none" opacity="0.5" />
    <circle cx="29.339494047618853" cy="37.29549078991631" r="0.5" fill="#90a09f" stroke="none" opacity="0.5" />
    <circle cx="30.586324404761875" cy="38.33754788515083" r="0.5" fill="#8e9ea2" stroke="none" opacity="0.5" />
    <circle cx="27.674761904761723" cy="36.092832376498116" r="0.5" fill="#8e9994" stroke="none" opacity="0.5" />
    <circle cx="30.836101190475887" cy="37.809366895582386" r="0.5" fill="#919fa2" stroke="none" opacity="0.5" />
    <circle cx="29.995863095238118" cy="37.21875131663633" r="0.5" fill="#92a0a0" stroke="none" opacity="0.5" />
    <circle cx="29.99988095238071" cy="37.21701582922041" r="0.5" fill="#92a0a1" stroke="none" opacity="0.5" />
    <circle cx="28.926145833333326" cy="36.686635410055295" r="0.5" fill="#909d9b" stroke="none" opacity="0.5" />
    <circle cx="30.01223214285698" cy="37.22299552843676" r="0.5" fill="#92a0a1" stroke="none" opacity="0.5" />
    <circle cx="30.226309523809828" cy="37.271468894787695" r="0.5" fill="#92a0a0" stroke="none" opacity="0.5" />
    <circle cx="30.0004166666667" cy="35.775083531919016" r="0.5" fill="#959c9a" stroke="none" opacity="0.5" />
    <circle cx="29.930758928571453" cy="37.98545013616344" r="0.5" fill="#8f9fa1" stroke="none" opacity="0.5" />
    <circle cx="28.174092261904804" cy="34.29628501430412" r="0.5" fill="#93958d" stroke="none" opacity="0.5" />
    <circle cx="30.00035714285678" cy="37.21780624923122" r="0.5" fill="#92a0a1" stroke="none" opacity="0.5" />
    <circle cx="30.000327380952502" cy="37.01958265680966" r="0.5" fill="#93a0a0" stroke="none" opacity="0.5" />
    <circle cx="29.894122023809878" cy="37.54350225153343" r="0.5" fill="#91a0a1" stroke="none" opacity="0.5" />
    <circle cx="28.939226190475978" cy="38.22529965201099" r="0.5" fill="#8ca0a0" stroke="none" opacity="0.5" />
    <circle cx="29.574047619047622" cy="37.463162930593334" r="0.5" fill="#91a0a0" stroke="none" opacity="0.5" />
    <circle cx="27.58760416666681" cy="38.05930285809726" r="0.5" fill="#899f9d" stroke="none" opacity="0.5" />
    <circle cx="29.580000000000133" cy="37.12854033707567" r="0.5" fill="#91a09f" stroke="none" opacity="0.5" />
    <circle cx="29.794136904762084" cy="37.10609928196944" r="0.5" fill="#92a09f" stroke="none" opacity="0.5" />
    <circle cx="29.90717261904798" cy="37.41341801900693" r="0.5" fill="#91a0a1" stroke="none" opacity="0.5" />
    <circle cx="30.769732142857123" cy="37.12171866871629" r="0.5" fill="#929d9f" stroke="none" opacity="0.5" />
    <circle cx="29.949940476190456" cy="36.85806204578675" r="0.5" fill="#939f9f" stroke="none" opacity="0.5" />
    <circle cx="31.111636904761866" cy="38.63954847015511" r="0.5" fill="#8d9da3" stroke="none" opacity="0.5" />
    <circle cx="29.19126488095241" cy="37.05921534716363" r="0.5" fill="#909f9d" stroke="none" opacity="0.5" />
    <circle cx="29.489523809523646" cy="36.61189776136944" r="0.5" fill="#929e9c" stroke="none" opacity="0.5" />
    <circle cx="28.179970238094853" cy="36.44986165903481" r="0.5" fill="#8e9b97" stroke="none" opacity="0.5" />
    <circle cx="30.12549107142864" cy="37.733288969486644" r="0.5" fill="#90a0a1" stroke="none" opacity="0.5" />
    <circle cx="30.51031249999997" cy="38.32663665238454" r="0.5" fill="#8e9ea2" stroke="none" opacity="0.5" />
    <circle cx="30.39645833333322" cy="37.724929418713266" r="0.5" fill="#909fa1" stroke="none" opacity="0.5" />
    <circle cx="29.999345238095266" cy="35.90112115764841" r="0.5" fill="#959d9a" stroke="none" opacity="0.5" />
    <circle cx="29.07346726190472" cy="36.22499575731576" r="0.5" fill="#929c99" stroke="none" opacity="0.5" />
    <circle cx="30.50620535714291" cy="36.69326806493331" r="0.5" fill="#939d9d" stroke="none" opacity="0.5" />
    <circle cx="30.90843749999998" cy="37.48076695889071" r="0.5" fill="#929ea1" stroke="none" opacity="0.5" />
    <circle cx="28.89916666666663" cy="37.38384600075472" r="0.5" fill="#8f9f9e" stroke="none" opacity="0.5" />
    <circle cx="30.115342261904605" cy="38.121127449423014" r="0.5" fill="#8e9fa1" stroke="none" opacity="0.5" />
    <circle cx="29.831116071428433" cy="36.3714983881225" r="0.5" fill="#949e9c" stroke="none" opacity="0.5" />
    <circle cx="29.573556547619276" cy="37.63654843330929" r="0.5" fill="#90a0a1" stroke="none" opacity="0.5" />
    <circle cx="28.544077380952224" cy="37.93528424000561" r="0.5" fill="#8da09f" stroke="none" opacity="0.5" />
    <circle cx="30.00040178571415" cy="36.90900117891194" r="0.5" fill="#93a09f" stroke="none" opacity="0.5" />
    <circle cx="29.87191964285725" cy="36.78634861279668" r="0.5" fill="#939f9e" stroke="none" opacity="0.5" />
    <circle cx="29.99973214285714" cy="36.30827337873299" r="0.5" fill="#949e9c" stroke="none" opacity="0.5" />
    <circle cx="29.80083333333325" cy="36.62023153757663" r="0.5" fill="#939e9d" stroke="none" opacity="0.5" />
    <circle cx="29.99944940476228" cy="37.21631991594928" r="0.5" fill="#92a0a0" stroke="none" opacity="0.5" />
    <circle cx="29.999985119047725" cy="35.665034728376476" r="0.5" fill="#969c99" stroke="none" opacity="0.5" />
    <circle cx="30.014002976190515" cy="37.593281529207665" r="0.5" fill="#91a0a1" stroke="none" opacity="0.5" />
    <circle cx="29.89534226190461" cy="36.789527475885826" r="0.5" fill="#939f9e" stroke="none" opacity="0.5" />
    <circle cx="29.999315476190446" cy="37.21653470399574" r="0.5" fill="#92a0a0" stroke="none" opacity="0.5" />
    <circle cx="29.946190476190452" cy="37.92401216332144" r="0.5" fill="#8f9fa1" stroke="none" opacity="0.5" />
    <circle cx="29.82425595238115" cy="36.48845477524291" r="0.5" fill="#939e9c" stroke="none" opacity="0.5" />
    <circle cx="29.39852678571426" cy="37.56637288273305" r="0.5" fill="#90a0a0" stroke="none" opacity="0.5" />
    <circle cx="30.082961309523792" cy="38.09469992817268" r="0.5" fill="#8e9fa1" stroke="none" opacity="0.5" />
    <circle cx="30.37412202380903" cy="37.08553977015164" r="0.5" fill="#939f9f" stroke="none" opacity="0.5" />
    <circle cx="29.442529761904822" cy="36.51257976863377" r="0.5" fill="#929d9b" stroke="none" opacity="0.5" />
    <circle cx="29.449657738095237" cy="36.77471569219417" r="0.5" fill="#929e9d" stroke="none" opacity="0.5" />
    <circle cx="30.369747023809385" cy="36.819821181974575" r="0.5" fill="#939e9e" stroke="none" opacity="0.5" />
    <circle cx="30.000089285714196" cy="37.216929914001454" r="0.5" fill="#92a0a1" stroke="none" opacity="0.5" />
    <circle cx="31.078556547619094" cy="37.839669193192776" r="0.5" fill="#919ea2" stroke="none" opacity="0.5" />
    <circle cx="28.772678571428482" cy="37.841739749961945" r="0.5" fill="#8ea0a0" stroke="none" opacity="0.5" />
    <circle cx="29.431086309523867" cy="37.54290084500337" r="0.5" fill="#90a0a0" stroke="none" opacity="0.5" />
    <circle cx="30.405729166666767" cy="37.06002295021866" r="0.5" fill="#939f9f" stroke="none" opacity="0.5" />
    <circle cx="28.598541666666776" cy="38.54950932103127" r="0.5" fill="#8aa0a0" stroke="none" opacity="0.5" />
    <circle cx="29.904598214285876" cy="37.162726002568306" r="0.5" fill="#92a0a0" stroke="none" opacity="0.5" />
    <circle cx="30.311324404761883" cy="36.96450241014628" r="0.5" fill="#939f9f" stroke="none" opacity="0.5" />
    <circle cx="30.00007440476192" cy="36.942645578527134" r="0.5" fill="#93a09f" stroke="none" opacity="0.5" />
    <circle cx="29.74255952380959" cy="37.36472127308774" r="0.5" fill="#91a0a0" stroke="none" opacity="0.5" />
    <circle cx="29.042604166666457" cy="37.52118147773384" r="0.5" fill="#8fa09f" stroke="none" opacity="0.5" />
    <circle cx="29.11236607142858" cy="37.72729208722582" r="0.5" fill="#8fa0a0" stroke="none" opacity="0.5" />
    <circle cx="30.33473214285723" cy="37.411012392885134" r="0.5" fill="#92a0a1" stroke="none" opacity="0.5" />
    <circle cx="30.0" cy="37.216740900520556" r="0.5" fill="#93a0a0" stroke="none" opacity="0.5" />
    <circle cx="29.768749999999986" cy="34.47886344541342" r="0.5" fill="#979893" stroke="none" opacity="0.5" />
    <circle cx="46.14211309523815" cy="47.353722899210766" r="0.5" fill="#7580b8" stroke="none" opacity="0.5" />
    <circle cx="30.783110119047457" cy="37.877042313297" r="0.5" fill="#909fa2" stroke="none" opacity="0.5" />
    <circle cx="32.21507440476189" cy="39.65651832154896" r="0.5" fill="#899aa5" stroke="none" opacity="0.5" />
    <circle cx="30.473050595238213" cy="36.844685046246056" r="0.5" fill="#939e9e" stroke="none" opacity="0.5" />
    <circle cx="29.257574404762074" cy="28.877354429691557" r="0.5" fill="#a08676" stroke="none" opacity="0.5" />
    <circle cx="28.637500000000006" cy="15.89431912411759" r="0.5" fill="#b85f36" stroke="none" opacity="0.5" />
    <circle cx="29.765327380952346" cy="38.129899393245005" r="0.5" fill="#8e9fa1" stroke="none" opacity="0.5" />
    <circle cx="29.819389880952617" cy="37.31962437482929" r="0.5" fill="#92a0a0" stroke="none" opacity="0.5" />
    <circle cx="29.206369047619177" cy="37.68192026026759" r="0.5" fill="#8fa0a0" stroke="none" opacity="0.5" />
    <circle cx="28.969017857142813" cy="36.44664842985751" r="0.5" fill="#919c9a" stroke="none" opacity="0.5" />
    <circle cx="29.1847023809524" cy="37.27780943792232" r="0.5" fill="#909f9e" stroke="none" opacity="0.5" />
    <circle cx="30.562574404761882" cy="37.0556756401559" r="0.5" fill="#939e9f" stroke="none" opacity="0.5" />
    <circle cx="29.493794642857228" cy="37.19417097258659" r="0.5" fill="#91a09f" stroke="none" opacity="0.5" />
    <circle cx="29.873095238095154" cy="36.954373005870245" r="0.5" fill="#939f9f" stroke="none" opacity="0.5" />
    <circle cx="30.972633928571604" cy="37.64703008998234" r="0.5" fill="#919ea1" stroke="none" opacity="0.5" />
    <circle cx="31.01489583333332" cy="37.81255435019358" r="0.5" fill="#919fa2" stroke="none" opacity="0.5" />
    <circle cx="30.000982142856962" cy="35.11150874931282" r="0.5" fill="#979a96" stroke="none" opacity="0.5" />
    <circle cx="29.417083333333352" cy="36.69777861391133" r="0.5" fill="#929e9c" stroke="none" opacity="0.5" />
    <circle cx="29.290877976190608" cy="35.95826336955885" r="0.5" fill="#939c98" stroke="none" opacity="0.5" />
    <circle cx="29.68114583333342" cy="36.6573211374588" r="0.5" fill="#939e9d" stroke="none" opacity="0.5" />
    <circle cx="30.79922619047601" cy="36.43618395622869" r="0.5" fill="#949b9c" stroke="none" opacity="0.5" />
    <circle cx="30.245000000000214" cy="37.35838072995303" r="0.5" fill="#92a0a1" stroke="none" opacity="0.5" />
    <circle cx="30.034702380952197" cy="37.09615029965219" r="0.5" fill="#93a0a0" stroke="none" opacity="0.5" />
    <circle cx="30.479002976190454" cy="37.39584835679724" r="0.5" fill="#929fa1" stroke="none" opacity="0.5" />
    <circle cx="30.860684523809546" cy="36.99662611039194" r="0.5" fill="#939d9e" stroke="none" opacity="0.5" />
    <circle cx="31.09702380952372" cy="38.1375458477031" r="0.5" fill="#8f9ea2" stroke="none" opacity="0.5" />
    <circle cx="31.51135416666675" cy="36.16026723160024" r="0.5" fill="#949899" stroke="none" opacity="0.5" />
    <circle cx="29.86711309523809" cy="36.55311456878322" r="0.5" fill="#939e9d" stroke="none" opacity="0.5" />
    <circle cx="30.473705357142947" cy="36.307629014593445" r="0.5" fill="#949c9b" stroke="none" opacity="0.5" />
    <circle cx="29.658869047619007" cy="35.60285788465449" r="0.5" fill="#959b98" stroke="none" opacity="0.5" />
    <circle cx="29.50153273809514" cy="37.26735355581507" r="0.5" fill="#91a09f" stroke="none" opacity="0.5" />
    <circle cx="28.689598214285805" cy="40.11769403210804" r="0.5" fill="#829da2" stroke="none" opacity="0.5" />
    <circle cx="30.60214285714275" cy="37.366559858766536" r="0.5" fill="#929fa0" stroke="none" opacity="0.5" />
    <circle cx="30.208630952380958" cy="37.0144449267357" r="0.5" fill="#939f9f" stroke="none" opacity="0.5" />
    <circle cx="29.968824404761914" cy="37.2324891600953" r="0.5" fill="#92a0a0" stroke="none" opacity="0.5" />
    <circle cx="30.756235119047503" cy="36.93376194492086" r="0.5" fill="#939d9e" stroke="none" opacity="0.5" />
    <circle cx="29.487857142857127" cy="38.50565819344274" r="0.5" fill="#8b9fa1" stroke="none" opacity="0.5" />
    <circle cx="29.188392857142897" cy="36.671471373967236" r="0.5" fill="#919d9b" stroke="none" opacity="0.5" />
    <circle cx="30.000163690476114" cy="36.32424501787622" r="0.5" fill="#949e9c" stroke="none" opacity="0.5" />
    <circle cx="29.999747023809554" cy="37.21688695639221" r="0.5" fill="#92a0a0" stroke="none" opacity="0.5" />
    <circle cx="29.721160714285535" cy="36.75138971033637" r="0.5" fill="#939f9d" stroke="none" opacity="0.5" />
    <circle cx="29.999806547619063" cy="36.678439098198034" r="0.5" fill="#949f9e" stroke="none" opacity="0.5" />
    <circle cx="29.999836309523612" cy="36.55049415461496" r="0.5" fill="#949f9d" stroke="none" opacity="0.5" />
    <circle cx="30.273333333333337" cy="37.37484208584236" r="0.5" fill="#92a0a1" stroke="none" opacity="0.5" />
    <circle cx="31.014434523809527" cy="38.56851376739186" r="0.5" fill="#8d9da3" stroke="none" opacity="0.5" />
    <circle cx="30.000193452381072" cy="36.343318196412014" r="0.5" fill="#949e9c" stroke="none" opacity="0.5" />
    <circle cx="30.000386904761875" cy="36.437283671027025" r="0.5" fill="#949e9d" stroke="none" opacity="0.5" />
    <circle cx="29.999791666666653" cy="37.151153222618795" r="0.5" fill="#93a0a0" stroke="none" opacity="0.5" />
    <circle cx="29.515461309523733" cy="36.18813812852373" r="0.5" fill="#939d9a" stroke="none" opacity="0.5" />
    <circle cx="30.00007440476192" cy="36.226250119507625" r="0.5" fill="#949e9c" stroke="none" opacity="0.5" />
    <circle cx="30.353318452380876" cy="37.2855332160771" r="0.5" fill="#929fa0" stroke="none" opacity="0.5" />
    <circle cx="30.740044642857033" cy="37.644126155592566" r="0.5" fill="#919fa2" stroke="none" opacity="0.5" />
    <circle cx="27.862053571428543" cy="37.41797152559428" r="0.5" fill="#8c9d9b" stroke="none" opacity="0.5" />
    <circle cx="31.653973214285728" cy="36.98043109168035" r="0.5" fill="#929a9d" stroke="none" opacity="0.5" />
    <circle cx="29.95811011904761" cy="38.5721995302711" r="0.5" fill="#8c9ea2" stroke="none" opacity="0.5" />
    <circle cx="29.960401785714176" cy="37.24084011934617" r="0.5" fill="#92a0a0" stroke="none" opacity="0.5" />
    <circle cx="29.804717261904823" cy="37.53547777011378" r="0.5" fill="#91a0a1" stroke="none" opacity="0.5" />
    <circle cx="30.37610119047618" cy="37.08132133291684" r="0.5" fill="#939f9f" stroke="none" opacity="0.5" />
    <circle cx="29.999940476190492" cy="37.216878364870325" r="0.5" fill="#92a0a0" stroke="none" opacity="0.5" />
    <circle cx="29.132008928571377" cy="36.73450736987546" r="0.5" fill="#919e9b" stroke="none" opacity="0.5" />
    <circle cx="30.423407738095232" cy="38.48968655429941" r="0.5" fill="#8d9ea2" stroke="none" opacity="0.5" />
    <circle cx="30.494404761904764" cy="35.96816939426685" r="0.5" fill="#959b9a" stroke="none" opacity="0.5" />
    <circle cx="29.55784226190474" cy="39.60144666640777" r="0.5" fill="#869da2" stroke="none" opacity="0.5" />
    <circle cx="29.49635416666665" cy="36.37747808733916" r="0.5" fill="#939d9b" stroke="none" opacity="0.5" />
    <circle cx="29.969434523809415" cy="37.234301971208296" r="0.5" fill="#92a0a0" stroke="none" opacity="0.5" />
    <circle cx="30.226502976190496" cy="37.51145587498501" r="0.5" fill="#91a0a1" stroke="none" opacity="0.5" />
    <circle cx="29.99985119047616" cy="36.71039096800632" r="0.5" fill="#939f9e" stroke="none" opacity="0.5" />
    <circle cx="28.8673214285714" cy="37.87667287785684" r="0.5" fill="#8ea0a0" stroke="none" opacity="0.5" />
    <circle cx="29.90824404761914" cy="36.779174692040755" r="0.5" fill="#939f9e" stroke="none" opacity="0.5" />
    <circle cx="30.000104166666745" cy="37.216955688567175" r="0.5" fill="#92a0a1" stroke="none" opacity="0.5" />
    <circle cx="29.39075892857139" cy="36.233948123096916" r="0.5" fill="#939d9a" stroke="none" opacity="0.5" />
    <circle cx="30.380029761904716" cy="36.59423359241929" r="0.5" fill="#949d9d" stroke="none" opacity="0.5" />
    <circle cx="29.204836309523817" cy="37.676017884747694" r="0.5" fill="#8fa0a0" stroke="none" opacity="0.5" />
    <circle cx="29.999955357142902" cy="37.21690413943589" r="0.5" fill="#92a1a0" stroke="none" opacity="0.5" />
    <circle cx="28.53630952380949" cy="36.81785372346789" r="0.5" fill="#8f9d9a" stroke="none" opacity="0.5" />
    <circle cx="28.187961309524024" cy="36.116398920968095" r="0.5" fill="#8f9a96" stroke="none" opacity="0.5" />
    <circle cx="30.382470238095255" cy="36.749035633345855" r="0.5" fill="#939e9e" stroke="none" opacity="0.5" />
    <circle cx="30.20626488095234" cy="37.334917283745156" r="0.5" fill="#92a0a1" stroke="none" opacity="0.5" />
    <circle cx="29.817336309523814" cy="36.12701804199068" r="0.5" fill="#949d9b" stroke="none" opacity="0.5" />
    <circle cx="30.483779761904792" cy="37.495948178022374" r="0.5" fill="#92a0a1" stroke="none" opacity="0.5" />
    <circle cx="29.9849404761906" cy="36.280161919197624" r="0.5" fill="#949e9c" stroke="none" opacity="0.5" />
    <circle cx="28.514702380952492" cy="38.10252680458979" r="0.5" fill="#8ca0a0" stroke="none" opacity="0.5" />
    <circle cx="29.867752976190413" cy="36.197056128217454" r="0.5" fill="#949d9b" stroke="none" opacity="0.5" />
    <circle cx="30.072142857142882" cy="36.17312873982921" r="0.5" fill="#949d9b" stroke="none" opacity="0.5" />
    <circle cx="29.752410714285674" cy="37.22060708535873" r="0.5" fill="#92a0a0" stroke="none" opacity="0.5" />
    <circle cx="28.283854166666764" cy="37.48896327074782" r="0.5" fill="#8d9e9c" stroke="none" opacity="0.5" />
    <circle cx="29.86111607142862" cy="37.38153488137361" r="0.5" fill="#91a0a1" stroke="none" opacity="0.5" />
    <circle cx="30.043690476190474" cy="37.452715640008044" r="0.5" fill="#91a0a1" stroke="none" opacity="0.5" />
    <circle cx="32.0127083333334" cy="38.89191583335672" r="0.5" fill="#8d9ca4" stroke="none" opacity="0.5" />
    <circle cx="29.40589285714284" cy="37.62755310991888" r="0.5" fill="#90a0a0" stroke="none" opacity="0.5" />
    <circle cx="19.82247023809523" cy="43.3629094447437" r="0.5" fill="#66a09d" stroke="none" opacity="0.5" />
    <circle cx="30.00013392857143" cy="37.216783858129794" r="0.5" fill="#93a0a0" stroke="none" opacity="0.5" />
    <circle cx="30.305401785714327" cy="36.84301829100447" r="0.5" fill="#939e9e" stroke="none" opacity="0.5" />
    <circle cx="29.473080357142862" cy="34.868875580381676" r="0.5" fill="#959994" stroke="none" opacity="0.5" />
    <circle cx="29.489434523809585" cy="34.559108259613296" r="0.5" fill="#969892" stroke="none" opacity="0.5" />
    <circle cx="29.781145833333355" cy="36.402685612484916" r="0.5" fill="#939e9c" stroke="none" opacity="0.5" />
    <circle cx="29.80038690476187" cy="37.35205736986185" r="0.5" fill="#92a0a0" stroke="none" opacity="0.5" />
    <circle cx="29.99971726190473" cy="36.595702742657856" r="0.5" fill="#949f9e" stroke="none" opacity="0.5" />
    <circle cx="29.9994345238096" cy="37.217617235750545" r="0.5" fill="#92a0a1" stroke="none" opacity="0.5" />
    <circle cx="29.38761904761902" cy="37.56682823339154" r="0.5" fill="#90a0a0" stroke="none" opacity="0.5" />
    <circle cx="31.291830357142825" cy="36.571955776228556" r="0.5" fill="#939a9c" stroke="none" opacity="0.5" />
    <circle cx="30.00129464285719" cy="37.128617660772356" r="0.5" fill="#93a0a0" stroke="none" opacity="0.5" />
    <circle cx="29.92968750000002" cy="37.25840119003391" r="0.5" fill="#92a0a0" stroke="none" opacity="0.5" />
    <circle cx="28.987276785714226" cy="37.39144949760342" r="0.5" fill="#8f9f9e" stroke="none" opacity="0.5" />
    <circle cx="29.915386904761828" cy="36.48921082916665" r="0.5" fill="#949e9d" stroke="none" opacity="0.5" />
    <circle cx="30.01236607142868" cy="37.22400073649473" r="0.5" fill="#92a0a1" stroke="none" opacity="0.5" />
    <circle cx="29.999880952380984" cy="36.753743787326584" r="0.5" fill="#939f9e" stroke="none" opacity="0.5" />
    <circle cx="29.81770833333328" cy="37.32169493159815" r="0.5" fill="#92a0a0" stroke="none" opacity="0.5" />
    <circle cx="29.99992559523808" cy="36.54112939578448" r="0.5" fill="#949e9d" stroke="none" opacity="0.5" />
    <circle cx="29.402529761904713" cy="36.65461480807204" r="0.5" fill="#929e9c" stroke="none" opacity="0.5" />
    <circle cx="31.78377976190491" cy="37.60366867913996" r="0.5" fill="#919ba0" stroke="none" opacity="0.5" />
    <circle cx="30.06528273809526" cy="36.44835814270837" r="0.5" fill="#949e9d" stroke="none" opacity="0.5" />
    <circle cx="30.313556547619072" cy="37.6498996582845" r="0.5" fill="#919fa1" stroke="none" opacity="0.5" />
    <circle cx="30.603943452380967" cy="36.88343280984776" r="0.5" fill="#939d9e" stroke="none" opacity="0.5" />
    <circle cx="29.09547619047621" cy="37.73877895195649" r="0.5" fill="#8fa0a0" stroke="none" opacity="0.5" />
    <circle cx="29.999747023809554" cy="36.80545615741967" r="0.5" fill="#939f9f" stroke="none" opacity="0.5" />
    <circle cx="30.6088095238095" cy="37.29659050471472" r="0.5" fill="#929fa0" stroke="none" opacity="0.5" />
    <circle cx="30.0" cy="37.15809517228411" r="0.5" fill="#93a0a0" stroke="none" opacity="0.5" />
    <circle cx="30.000044642857166" cy="37.21705878682946" r="0.5" fill="#92a0a1" stroke="none" opacity="0.5" />
    <circle cx="29.366279761904746" cy="37.58280846405666" r="0.5" fill="#90a0a0" stroke="none" opacity="0.5" />
    <circle cx="30.50462797619045" cy="37.50838011015803" r="0.5" fill="#92a0a1" stroke="none" opacity="0.5" />
    <circle cx="29.442410714285806" cy="36.970370419578735" r="0.5" fill="#919f9e" stroke="none" opacity="0.5" />
    <circle cx="30.25831845238104" cy="35.19286186983316" r="0.5" fill="#969a96" stroke="none" opacity="0.5" />
    <circle cx="29.73608630952391" cy="36.46603949470239" r="0.5" fill="#939e9c" stroke="none" opacity="0.5" />
    <circle cx="30.439642857142868" cy="37.4706891037453" r="0.5" fill="#92a0a1" stroke="none" opacity="0.5" />
    <circle cx="30.000029761904823" cy="37.216843998782956" r="0.5" fill="#93a0a0" stroke="none" opacity="0.5" />
    <circle cx="30.474196428571428" cy="37.20179165247904" r="0.5" fill="#929fa0" stroke="none" opacity="0.5" />
    <circle cx="29.811815476190414" cy="37.98882660425561" r="0.5" fill="#8e9fa1" stroke="none" opacity="0.5" />
    <circle cx="29.73913690476195" cy="33.95682539397736" r="0.5" fill="#989690" stroke="none" opacity="0.5" />
    <circle cx="30.202693452380995" cy="37.33388630112171" r="0.5" fill="#92a0a1" stroke="none" opacity="0.5" />
    <circle cx="29.58575892857137" cy="37.455799996356866" r="0.5" fill="#91a0a0" stroke="none" opacity="0.5" />
    <circle cx="30.536592261904833" cy="37.527212726081636" r="0.5" fill="#929fa1" stroke="none" opacity="0.5" />
    <circle cx="29.63995535714286" cy="37.89910534144088" r="0.5" fill="#8fa0a1" stroke="none" opacity="0.5" />
    <circle cx="28.704985119047638" cy="37.96594738153455" r="0.5" fill="#8da0a0" stroke="none" opacity="0.5" />
    <circle cx="29.7818154761905" cy="38.01173160154221" r="0.5" fill="#8e9fa1" stroke="none" opacity="0.5" />
    <circle cx="29.544479166666616" cy="37.479959355835405" r="0.5" fill="#91a0a0" stroke="none" opacity="0.5" />
    <circle cx="30.000342261904777" cy="36.44303139915339" r="0.5" fill="#949e9d" stroke="none" opacity="0.5" />
    <circle cx="29.358065476190422" cy="35.38872279374259" r="0.5" fill="#949a96" stroke="none" opacity="0.5" />
    <circle cx="28.070104166666688" cy="38.3307262167913" r="0.5" fill="#8aa0a0" stroke="none" opacity="0.5" />
    <circle cx="29.999791666666784" cy="37.477768517760495" r="0.5" fill="#91a0a1" stroke="none" opacity="0.5" />
    <circle cx="30.08526785714284" cy="37.26590158862023" r="0.5" fill="#92a0a1" stroke="none" opacity="0.5" />
    <circle cx="29.765907738095297" cy="37.10969912963019" r="0.5" fill="#92a09f" stroke="none" opacity="0.5" />
    <circle cx="29.99913690476192" cy="36.89531488458425" r="0.5" fill="#93a09f" stroke="none" opacity="0.5" />
    <circle cx="29.999791666666653" cy="36.247136109156486" r="0.5" fill="#949e9c" stroke="none" opacity="0.5" />
    <circle cx="29.423288690476173" cy="37.64001940814206" r="0.5" fill="#90a0a0" stroke="none" opacity="0.5" />
    <circle cx="30.000029761904756" cy="37.17146358030281" r="0.5" fill="#93a0a0" stroke="none" opacity="0.5" />
    <circle cx="27.741577380952414" cy="38.569733763496366" r="0.5" fill="#89a0a0" stroke="none" opacity="0.5" />
    <circle cx="28.429136904761904" cy="38.45416061139619" r="0.5" fill="#8aa0a0" stroke="none" opacity="0.5" />
    <circle cx="29.272142857142853" cy="37.10144267711984" r="0.5" fill="#909f9e" stroke="none" opacity="0.5" />
    <circle cx="29.98169642857149" cy="37.22744593676171" r="0.5" fill="#92a1a0" stroke="none" opacity="0.5" />
    <circle cx="30.627529761904846" cy="37.57889073008728" r="0.5" fill="#929fa1" stroke="none" opacity="0.5" />
    <circle cx="30.642693452380982" cy="37.924690893548735" r="0.5" fill="#909fa2" stroke="none" opacity="0.5" />
    <circle cx="29.999910714285736" cy="36.598993295531336" r="0.5" fill="#949f9e" stroke="none" opacity="0.5" />
    <circle cx="30.42803571428573" cy="37.46405644886709" r="0.5" fill="#92a0a1" stroke="none" opacity="0.5" />
    <circle cx="29.99998511904759" cy="37.21680104117356" r="0.5" fill="#93a0a0" stroke="none" opacity="0.5" />
    <circle cx="30.000014880952342" cy="37.216886956392166" r="0.5" fill="#92a0a1" stroke="none" opacity="0.5" />
    <circle cx="29.264166666666636" cy="37.963017672579255" r="0.5" fill="#8ea0a1" stroke="none" opacity="0.5" />
    <circle cx="28.33739583333332" cy="37.08100344660797" r="0.5" fill="#8e9d9b" stroke="none" opacity="0.5" />
    <circle cx="30.000044642857098" cy="37.21692132247965" r="0.5" fill="#92a0a1" stroke="none" opacity="0.5" />
    <circle cx="29.999970238095244" cy="36.38152469413655" r="0.5" fill="#949e9c" stroke="none" opacity="0.5" />
    <circle cx="29.38080357142856" cy="37.80821563165284" r="0.5" fill="#8fa0a0" stroke="none" opacity="0.5" />
    <circle cx="30.516979166666722" cy="36.4726034174056" r="0.5" fill="#949c9c" stroke="none" opacity="0.5" />
    <circle cx="30.00001488095241" cy="37.21685259030477" r="0.5" fill="#93a0a0" stroke="none" opacity="0.5" />
    <circle cx="30.000044642857166" cy="37.216886956392166" r="0.5" fill="#92a0a0" stroke="none" opacity="0.5" />
    <circle cx="28.676562500000014" cy="37.981790147849836" r="0.5" fill="#8da0a0" stroke="none" opacity="0.5" />
    <circle cx="34.82531249999995" cy="39.29715214506606" r="0.5" fill="#8c95a4" stroke="none" opacity="0.5" />
    <circle cx="29.99998511904759" cy="36.94731936642057" r="0.5" fill="#93a09f" stroke="none" opacity="0.5" />
    <circle cx="29.99998511904759" cy="36.251990319009025" r="0.5" fill="#949e9c" stroke="none" opacity="0.5" />
    <circle cx="30.000014880952342" cy="37.143893386644656" r="0.5" fill="#93a0a0" stroke="none" opacity="0.5" />
    <circle cx="28.573050595238072" cy="38.04959443839219" r="0.5" fill="#8ca0a0" stroke="none" opacity="0.5" />
    <circle cx="30.0" cy="37.030975014799985" r="0.5" fill="#93a0a0" stroke="none" opacity="0.5" />
    <circle cx="29.831250000000033" cy="37.269200733015644" r="0.5" fill="#92a0a0" stroke="none" opacity="0.5" />
    <circle cx="30.0" cy="37.216878364870325" r="0.1" fill="black" stroke="none" opacity="1" />
    <path d="M 5 51.65063509461096 L 55 51.65063509461096 L 30.0 8.349364905389034 z" fill="none" stroke="black" stroke-width="1" fill-opacity="1" stroke-linejoin="round" />
    <path d="M 29.566216386554622 37.46732345086306 L 30.346911239495793 37.41716766237813 L 30.0 36.6183414027667 z" fill="none" stroke="black" stroke-width="1" fill-opacity="1" stroke-linejoin="round" />
</svg>
